<svg width="108" height="108" viewBox="0 0 108 108" fill="none" xmlns="http://www.w3.org/2000/svg">
<g filter="url(#filter0_d_73_254)">
<path d="M54 0C81.6142 1.03082e-06 104 22.3858 104 50C104 77.6142 81.6142 100 54 100C26.3858 100 4 77.6142 4 50C4 22.3858 26.3858 0 54 0ZM53.998 23.333C46.7598 23.333 45.8507 23.3647 43.0068 23.4941C40.1679 23.6241 38.2298 24.0739 36.5342 24.7334C34.7804 25.4145 33.2927 26.3259 31.8105 27.8086C30.3273 29.2908 29.4157 30.7789 28.7324 32.5322C28.0714 34.2282 27.6219 36.1665 27.4941 39.0039C27.3669 41.8483 27.333 42.758 27.333 50C27.333 57.2423 27.3653 58.1487 27.4941 60.9932C27.6247 63.8321 28.0745 65.7702 28.7334 67.4658C29.415 69.2195 30.326 70.7074 31.8086 72.1895C33.2903 73.6728 34.7785 74.5865 36.5312 75.2676C38.2279 75.927 40.1666 76.3759 43.0049 76.5059C45.8491 76.6353 46.7576 76.667 53.999 76.667C61.2415 76.667 62.148 76.6353 64.9922 76.5059C67.8308 76.3759 69.7712 75.9269 71.4678 75.2676C73.221 74.5865 74.7069 73.6727 76.1885 72.1895C77.6718 70.7072 78.5833 69.2192 79.2666 67.4658C79.9221 65.7698 80.3725 63.8316 80.5059 60.9941C80.6336 58.1497 80.667 57.2423 80.667 50C80.667 42.7582 80.6336 41.8491 80.5059 39.0049C80.3725 36.166 79.9222 34.2278 79.2666 32.5322C78.5833 30.7784 77.6718 29.2908 76.1885 27.8086C74.7052 26.3253 73.2222 25.4139 71.4668 24.7334C69.7668 24.0739 67.8272 23.6241 64.9883 23.4941C62.1447 23.3647 61.2386 23.333 53.998 23.333Z" fill="#FBACCC"/>
<path d="M51.6099 28.1392C52.3199 28.138 53.1125 28.1392 54.0025 28.1392C61.1223 28.1392 61.9664 28.1647 64.7779 28.2925C67.3776 28.4114 68.7891 28.8455 69.7291 29.2104C70.9735 29.6938 71.8607 30.2722 72.7935 31.2056C73.7268 32.1389 74.3052 33.0275 74.7896 34.272C75.1546 35.2109 75.5893 36.6223 75.7076 39.2222C75.8354 42.0331 75.8629 42.8781 75.8629 49.9946C75.8629 57.1106 75.8353 57.9554 75.7076 60.7661C75.5887 63.3658 75.1546 64.7774 74.7896 65.7163C74.3063 66.9608 73.7269 67.847 72.7935 68.7798C71.8602 69.7131 70.9741 70.2916 69.7291 70.7749C68.7902 71.1415 67.3775 71.574 64.7779 71.6929C61.967 71.8206 61.1224 71.8491 54.0025 71.8491C46.8821 71.8491 46.0381 71.8206 43.2271 71.6929C40.6271 71.5729 39.2155 71.1389 38.275 70.7739C37.0307 70.2906 36.1418 69.713 35.2086 68.7798C34.2752 67.8464 33.6969 66.9594 33.2125 65.7144C32.8475 64.7755 32.4128 63.364 32.2945 60.7642C32.1667 57.9532 32.1412 57.1086 32.1412 49.9878C32.1412 42.8667 32.1667 42.0264 32.2945 39.2153C32.4134 36.6155 32.8475 35.2042 33.2125 34.2642C33.6958 33.0198 34.2753 32.131 35.2086 31.1978C36.1419 30.2644 37.0306 29.6861 38.275 29.2017C39.215 28.835 40.6271 28.4022 43.2271 28.2827C45.6869 28.1716 46.6403 28.1379 51.6099 28.1323V28.1392ZM54.0015 36.3062C46.4391 36.3067 40.3082 42.438 40.3082 50.0005C40.3083 57.5633 46.4397 63.6919 54.0025 63.6919C61.5653 63.6919 67.6948 57.5633 67.6949 50.0005C67.6949 42.4376 61.5644 36.3062 54.0015 36.3062ZM68.2369 32.5669C66.4703 32.567 65.0367 33.999 65.0367 35.7661C65.0369 37.5325 66.4704 38.9652 68.2369 38.9653C70.0034 38.9653 71.4369 37.5326 71.4371 35.7661C71.4371 33.9994 70.0036 32.5659 68.2369 32.5659V32.5669Z" fill="#FBACCC"/>
<path d="M54.0025 41.1113C58.9114 41.1113 62.8915 45.0908 62.8915 50.0003C62.8915 54.9093 58.9114 58.8893 54.0025 58.8893C49.093 58.8893 45.1135 54.9093 45.1135 50.0003C45.1135 45.0908 49.093 41.1113 54.0025 41.1113Z" fill="#FBACCC"/>
</g>
<defs>
<filter id="filter0_d_73_254" x="0" y="0" width="108" height="108" filterUnits="userSpaceOnUse" color-interpolation-filters="sRGB">
<feFlood flood-opacity="0" result="BackgroundImageFix"/>
<feColorMatrix in="SourceAlpha" type="matrix" values="0 0 0 0 0 0 0 0 0 0 0 0 0 0 0 0 0 0 127 0" result="hardAlpha"/>
<feOffset dy="4"/>
<feGaussianBlur stdDeviation="2"/>
<feComposite in2="hardAlpha" operator="out"/>
<feColorMatrix type="matrix" values="0 0 0 0 0.952941 0 0 0 0 0.207843 0 0 0 0 0.152941 0 0 0 0.25 0"/>
<feBlend mode="normal" in2="BackgroundImageFix" result="effect1_dropShadow_73_254"/>
<feBlend mode="normal" in="SourceGraphic" in2="effect1_dropShadow_73_254" result="shape"/>
</filter>
</defs>
</svg>
