<svg width="78" height="78" viewBox="0 0 78 78" fill="none" xmlns="http://www.w3.org/2000/svg">
<g id="Mail_ru_white" filter="url(#filter0_d_73_280)">
<g id="Mail.ru">
<path id="Combined Shape" d="M39 0C58.33 0 74 15.67 74 35C74 54.33 58.33 70 39 70C19.67 70 4 54.33 4 35C4 15.67 19.67 5.1544e-07 39 0ZM39 14.583C27.7423 14.583 18.583 23.7165 18.583 34.9424C18.5832 46.1682 27.7424 55.3008 39 55.3008C43.1243 55.3007 47.1011 54.0762 50.5 51.7598L50.5586 51.7197L47.8086 48.5312L47.7617 48.5615C45.1451 50.2401 42.1152 51.1269 39 51.127C30.0505 51.127 22.7697 43.8666 22.7695 34.9424C22.7695 26.018 30.0504 18.7568 39 18.7568C47.9495 18.757 55.2305 26.0181 55.2305 34.9424C55.2304 36.0986 55.1019 37.2693 54.8486 38.4209C54.335 40.5213 52.8599 41.1653 51.752 41.0801C50.6385 40.9904 49.3357 40.1984 49.3271 38.2617V34.9424C49.3271 29.2642 44.6942 24.6447 39 24.6445C33.3057 24.6445 28.6729 29.2641 28.6729 34.9424C28.673 40.6206 33.3058 45.2402 39 45.2402C41.7657 45.2402 44.3607 44.1611 46.3164 42.2002C47.4535 43.9649 49.3079 45.0714 51.417 45.2402C51.5978 45.2548 51.7824 45.2627 51.9658 45.2627C53.4508 45.2627 54.9226 44.7675 56.1094 43.8691C57.3333 42.9428 58.2474 41.6023 58.752 39.9932C58.8325 39.7362 58.9774 39.1509 58.9814 39.1338L58.9863 39.1123C59.2837 37.8201 59.416 36.5326 59.416 34.9424C59.416 23.7166 50.2576 14.5832 39 14.583Z" fill="#FBACCC"/>
<path id="Fill-5-path" fill-rule="evenodd" clip-rule="evenodd" d="M45.1408 34.9421C45.1408 38.3189 42.3859 41.0661 38.9997 41.0661C35.6133 41.0661 32.8585 38.3189 32.8585 34.9421C32.8585 31.5654 35.6133 28.8184 38.9997 28.8184C42.3859 28.8184 45.1408 31.5654 45.1408 34.9421Z" fill="#FBACCC"/>
</g>
</g>
<defs>
<filter id="filter0_d_73_280" x="0" y="0" width="78" height="78" filterUnits="userSpaceOnUse" color-interpolation-filters="sRGB">
<feFlood flood-opacity="0" result="BackgroundImageFix"/>
<feColorMatrix in="SourceAlpha" type="matrix" values="0 0 0 0 0 0 0 0 0 0 0 0 0 0 0 0 0 0 127 0" result="hardAlpha"/>
<feOffset dy="4"/>
<feGaussianBlur stdDeviation="2"/>
<feComposite in2="hardAlpha" operator="out"/>
<feColorMatrix type="matrix" values="0 0 0 0 0.952941 0 0 0 0 0.207843 0 0 0 0 0.152941 0 0 0 0.25 0"/>
<feBlend mode="normal" in2="BackgroundImageFix" result="effect1_dropShadow_73_280"/>
<feBlend mode="normal" in="SourceGraphic" in2="effect1_dropShadow_73_280" result="shape"/>
</filter>
</defs>
</svg>
